<svg width="131" height="32" viewBox="0 0 131 32" fill="none" xmlns="http://www.w3.org/2000/svg">
    <rect width="32" height="32" rx="8" fill="#F88545"/>
    <path d="M19.5771 8.13123C19.2212 8.48712 18.6106 8.59538 18.2547 8.23949L16.7085 6.69335C16.3174 6.30225 15.6833 6.30225 15.2922 6.69335L13.7461 8.23949C13.3902 8.59538 12.7796 8.48712 12.4237 8.13123C11.2384 6.946 9.31682 6.94601 8.1316 8.13123C6.94638 9.31645 6.94637 11.2381 8.1316 12.4233C8.48749 12.7792 8.59575 13.3898 8.23986 13.7457L6.69372 15.2919C6.30261 15.683 6.30261 16.3171 6.69372 16.7082L8.23985 18.2543C8.59574 18.6102 9.2064 18.5019 9.56229 18.1461C10.7475 16.9608 12.6691 16.9608 13.8544 18.1461C15.0396 19.3313 15.0396 21.2529 13.8544 22.4381C13.4985 22.794 13.3902 23.4047 13.7461 23.7606L15.2922 25.3067C15.6833 25.6978 16.3174 25.6978 16.7085 25.3067L18.2547 23.7606C18.6106 23.4047 19.2212 23.5129 19.5771 23.8688C20.7623 25.054 22.684 25.054 23.8692 23.8688C25.0544 22.6836 25.0544 20.762 23.8692 19.5767C23.5133 19.2209 23.405 18.6102 23.7609 18.2543L25.3071 16.7082C25.6982 16.3171 25.6982 15.683 25.3071 15.2919L23.7609 13.7457C23.405 13.3898 23.5133 12.7792 23.8692 12.4233C25.0544 11.2381 25.0544 9.31646 23.8692 8.13123C22.684 6.946 20.7623 6.94601 19.5771 8.13123Z"
          fill="white"/>
    <path d="M49.4766 16.7578H46.5156V15.2031H49.4766C49.9922 15.2031 50.4089 15.1198 50.7266 14.9531C51.0443 14.7865 51.276 14.5573 51.4219 14.2656C51.5729 13.9688 51.6484 13.6302 51.6484 13.25C51.6484 12.8906 51.5729 12.5547 51.4219 12.2422C51.276 11.9245 51.0443 11.6693 50.7266 11.4766C50.4089 11.2839 49.9922 11.1875 49.4766 11.1875H47.1172V21H45.1562V9.625H49.4766C50.3568 9.625 51.1042 9.78125 51.7188 10.0938C52.3385 10.401 52.8099 10.8281 53.1328 11.375C53.4557 11.9167 53.6172 12.5365 53.6172 13.2344C53.6172 13.9688 53.4557 14.599 53.1328 15.125C52.8099 15.651 52.3385 16.0547 51.7188 16.3359C51.1042 16.6172 50.3568 16.7578 49.4766 16.7578ZM60.2734 19.0078V12.5469H62.1641V21H60.3828L60.2734 19.0078ZM60.5391 17.25L61.1719 17.2344C61.1719 17.8021 61.1094 18.3255 60.9844 18.8047C60.8594 19.2786 60.6667 19.6927 60.4062 20.0469C60.1458 20.3958 59.8125 20.6693 59.4062 20.8672C59 21.0599 58.513 21.1562 57.9453 21.1562C57.5339 21.1562 57.1562 21.0964 56.8125 20.9766C56.4688 20.8568 56.1719 20.6719 55.9219 20.4219C55.6771 20.1719 55.487 19.8464 55.3516 19.4453C55.2161 19.0443 55.1484 18.5651 55.1484 18.0078V12.5469H57.0312V18.0234C57.0312 18.3307 57.0677 18.5885 57.1406 18.7969C57.2135 19 57.3125 19.1641 57.4375 19.2891C57.5625 19.4141 57.7083 19.5026 57.875 19.5547C58.0417 19.6068 58.2188 19.6328 58.4062 19.6328C58.9427 19.6328 59.3646 19.5286 59.6719 19.3203C59.9844 19.1068 60.2057 18.8203 60.3359 18.4609C60.4714 18.1016 60.5391 17.6979 60.5391 17.25ZM70.6328 19.5V21H64.3359V19.5H70.6328ZM70.4609 13.7188L64.9766 21H63.7578V19.7891L69.2109 12.5469H70.4609V13.7188ZM69.7344 12.5469V14.0469H63.8516V12.5469H69.7344ZM78.6797 19.5V21H72.3828V19.5H78.6797ZM78.5078 13.7188L73.0234 21H71.8047V19.7891L77.2578 12.5469H78.5078V13.7188ZM77.7812 12.5469V14.0469H71.8984V12.5469H77.7812ZM82.2031 9V21H80.3125V9H82.2031ZM87.9922 21.1562C87.3672 21.1562 86.8021 21.0547 86.2969 20.8516C85.7969 20.6432 85.3698 20.3542 85.0156 19.9844C84.6667 19.6146 84.3984 19.1797 84.2109 18.6797C84.0234 18.1797 83.9297 17.6406 83.9297 17.0625V16.75C83.9297 16.0885 84.026 15.4896 84.2188 14.9531C84.4115 14.4167 84.6797 13.9583 85.0234 13.5781C85.3672 13.1927 85.7734 12.8984 86.2422 12.6953C86.7109 12.4922 87.2188 12.3906 87.7656 12.3906C88.3698 12.3906 88.8984 12.4922 89.3516 12.6953C89.8047 12.8984 90.1797 13.1849 90.4766 13.5547C90.7786 13.9193 91.0026 14.3542 91.1484 14.8594C91.2995 15.3646 91.375 15.9219 91.375 16.5312V17.3359H84.8438V15.9844H89.5156V15.8359C89.5052 15.4974 89.4375 15.1797 89.3125 14.8828C89.1927 14.5859 89.0078 14.3464 88.7578 14.1641C88.5078 13.9818 88.1745 13.8906 87.7578 13.8906C87.4453 13.8906 87.1667 13.9583 86.9219 14.0938C86.6823 14.224 86.4818 14.4141 86.3203 14.6641C86.1589 14.9141 86.0339 15.2161 85.9453 15.5703C85.862 15.9193 85.8203 16.3125 85.8203 16.75V17.0625C85.8203 17.4323 85.8698 17.776 85.9688 18.0938C86.0729 18.4062 86.224 18.6797 86.4219 18.9141C86.6198 19.1484 86.8594 19.3333 87.1406 19.4688C87.4219 19.599 87.7422 19.6641 88.1016 19.6641C88.5547 19.6641 88.9583 19.5729 89.3125 19.3906C89.6667 19.2083 89.974 18.9505 90.2344 18.6172L91.2266 19.5781C91.0443 19.8438 90.8073 20.099 90.5156 20.3438C90.224 20.5833 89.8672 20.7786 89.4453 20.9297C89.0286 21.0807 88.5443 21.1562 87.9922 21.1562ZM104.141 19.4453V21H98.4297V19.4453H104.141ZM98.9766 9.625V21H97.0156V9.625H98.9766ZM109.195 21.1562C108.57 21.1562 108.005 21.0547 107.5 20.8516C107 20.6432 106.573 20.3542 106.219 19.9844C105.87 19.6146 105.602 19.1797 105.414 18.6797C105.227 18.1797 105.133 17.6406 105.133 17.0625V16.75C105.133 16.0885 105.229 15.4896 105.422 14.9531C105.615 14.4167 105.883 13.9583 106.227 13.5781C106.57 13.1927 106.977 12.8984 107.445 12.6953C107.914 12.4922 108.422 12.3906 108.969 12.3906C109.573 12.3906 110.102 12.4922 110.555 12.6953C111.008 12.8984 111.383 13.1849 111.68 13.5547C111.982 13.9193 112.206 14.3542 112.352 14.8594C112.503 15.3646 112.578 15.9219 112.578 16.5312V17.3359H106.047V15.9844H110.719V15.8359C110.708 15.4974 110.641 15.1797 110.516 14.8828C110.396 14.5859 110.211 14.3464 109.961 14.1641C109.711 13.9818 109.378 13.8906 108.961 13.8906C108.648 13.8906 108.37 13.9583 108.125 14.0938C107.885 14.224 107.685 14.4141 107.523 14.6641C107.362 14.9141 107.237 15.2161 107.148 15.5703C107.065 15.9193 107.023 16.3125 107.023 16.75V17.0625C107.023 17.4323 107.073 17.776 107.172 18.0938C107.276 18.4062 107.427 18.6797 107.625 18.9141C107.823 19.1484 108.062 19.3333 108.344 19.4688C108.625 19.599 108.945 19.6641 109.305 19.6641C109.758 19.6641 110.161 19.5729 110.516 19.3906C110.87 19.2083 111.177 18.9505 111.438 18.6172L112.43 19.5781C112.247 19.8438 112.01 20.099 111.719 20.3438C111.427 20.5833 111.07 20.7786 110.648 20.9297C110.232 21.0807 109.747 21.1562 109.195 21.1562ZM115.914 14.3516V21H114.031V12.5469H115.805L115.914 14.3516ZM115.578 16.4609L114.969 16.4531C114.974 15.8542 115.057 15.3047 115.219 14.8047C115.385 14.3047 115.615 13.875 115.906 13.5156C116.203 13.1562 116.557 12.8802 116.969 12.6875C117.38 12.4896 117.839 12.3906 118.344 12.3906C118.75 12.3906 119.117 12.4479 119.445 12.5625C119.779 12.6719 120.062 12.8516 120.297 13.1016C120.536 13.3516 120.719 13.6771 120.844 14.0781C120.969 14.474 121.031 14.9609 121.031 15.5391V21H119.141V15.5312C119.141 15.125 119.081 14.8047 118.961 14.5703C118.846 14.3307 118.677 14.1615 118.453 14.0625C118.234 13.9583 117.961 13.9062 117.633 13.9062C117.31 13.9062 117.021 13.974 116.766 14.1094C116.51 14.2448 116.294 14.4297 116.117 14.6641C115.945 14.8984 115.812 15.1693 115.719 15.4766C115.625 15.7839 115.578 16.112 115.578 16.4609ZM128.109 19.25V9H130V21H128.289L128.109 19.25ZM122.609 16.8672V16.7031C122.609 16.0625 122.685 15.4792 122.836 14.9531C122.987 14.4219 123.206 13.9661 123.492 13.5859C123.779 13.2005 124.128 12.9062 124.539 12.7031C124.951 12.4948 125.414 12.3906 125.93 12.3906C126.44 12.3906 126.888 12.4896 127.273 12.6875C127.659 12.8854 127.987 13.1693 128.258 13.5391C128.529 13.9036 128.745 14.3411 128.906 14.8516C129.068 15.3568 129.182 15.9193 129.25 16.5391V17.0625C129.182 17.6667 129.068 18.2188 128.906 18.7188C128.745 19.2188 128.529 19.651 128.258 20.0156C127.987 20.3802 127.656 20.6615 127.266 20.8594C126.88 21.0573 126.43 21.1562 125.914 21.1562C125.404 21.1562 124.943 21.0495 124.531 20.8359C124.125 20.6224 123.779 20.3229 123.492 19.9375C123.206 19.5521 122.987 19.099 122.836 18.5781C122.685 18.0521 122.609 17.4818 122.609 16.8672ZM124.492 16.7031V16.8672C124.492 17.2526 124.526 17.612 124.594 17.9453C124.667 18.2786 124.779 18.5729 124.93 18.8281C125.081 19.0781 125.276 19.276 125.516 19.4219C125.76 19.5625 126.052 19.6328 126.391 19.6328C126.818 19.6328 127.169 19.5391 127.445 19.3516C127.721 19.1641 127.938 18.9115 128.094 18.5938C128.255 18.2708 128.365 17.9115 128.422 17.5156V16.1016C128.391 15.7943 128.326 15.5078 128.227 15.2422C128.133 14.9766 128.005 14.7448 127.844 14.5469C127.682 14.3438 127.482 14.1875 127.242 14.0781C127.008 13.9635 126.729 13.9062 126.406 13.9062C126.062 13.9062 125.771 13.9792 125.531 14.125C125.292 14.2708 125.094 14.4714 124.938 14.7266C124.786 14.9818 124.674 15.2786 124.602 15.6172C124.529 15.9557 124.492 16.3177 124.492 16.7031Z"
          fill="white"/>
</svg>
